<?xml version="1.0" encoding="UTF-8"?>
<svg width="24px" height="24px" viewBox="0 0 24 24" version="1.1" xmlns="http://www.w3.org/2000/svg" xmlns:xlink="http://www.w3.org/1999/xlink">
    <!-- Generator: Sketch 49.3 (51167) - http://www.bohemiancoding.com/sketch -->
    <title>icon_about</title>
    <desc>Created with Sketch.</desc>
    <defs></defs>
    <g id="icon_about" stroke="none" stroke-width="1" fill="none" fill-rule="evenodd">
        <g id="Group-9" fill="#000000">
            <path d="M7.09090909,3.27272727 C7.99309091,3.27272727 8.72727273,4.00690909 8.72727273,4.90909091 C8.72727273,5.81127273 7.99309091,6.54545455 7.09090909,6.54545455 C6.18872727,6.54545455 5.45454545,5.81127273 5.45454545,4.90909091 C5.45454545,4.00690909 6.18872727,3.27272727 7.09090909,3.27272727 M7.09090909,9.81818182 C9.80181818,9.81818182 12,7.62 12,4.90909091 C12,2.19818182 9.80181818,0 7.09090909,0 C4.38,0 2.18181818,2.19818182 2.18181818,4.90909091 C2.18181818,7.62 4.38,9.81818182 7.09090909,9.81818182" id="Fill-1"></path>
            <path d="M19.0909091,3.27272727 C19.9930909,3.27272727 20.7272727,4.00690909 20.7272727,4.90909091 C20.7272727,5.81127273 19.9930909,6.54545455 19.0909091,6.54545455 C18.1887273,6.54545455 17.4545455,5.81127273 17.4545455,4.90909091 C17.4545455,4.00690909 18.1887273,3.27272727 19.0909091,3.27272727 M19.0909091,9.81818182 C21.8018182,9.81818182 24,7.62 24,4.90909091 C24,2.19818182 21.8018182,0 19.0909091,0 C16.38,0 14.1818182,2.19818182 14.1818182,4.90909091 C14.1818182,7.62 16.38,9.81818182 19.0909091,9.81818182" id="Fill-3"></path>
            <path d="M5.45454545,12 C2.44145455,12 0,14.4414545 0,17.4545455 L0,24 L3.27272727,24 L3.27272727,17.4545455 C3.27272727,16.2512727 4.25127273,15.2727273 5.45454545,15.2727273 L10.1389091,15.2727273 C10.5130909,14.0149091 11.2014545,12.8945455 12.1145455,12 L5.45454545,12 Z" id="Fill-5"></path>
            <path d="M12,17.4545455 L12,24 L15.2727273,24 L15.2727273,17.4545455 C15.2727273,16.2512727 16.2512727,15.2727273 17.4545455,15.2727273 L24,15.2727273 L24,12 L17.4545455,12 C14.4414545,12 12,14.4414545 12,17.4545455" id="Fill-7"></path>
        </g>
    </g>
</svg>