<?xml version="1.0" encoding="UTF-8"?>
<svg width="400px" height="500px" viewBox="0 0 400 500" version="1.1" xmlns="http://www.w3.org/2000/svg" xmlns:xlink="http://www.w3.org/1999/xlink">
    <!-- Generator: Sketch 51.2 (57519) - http://www.bohemiancoding.com/sketch -->
    <title>Illo/beyondRide/freight</title>
    <desc>Created with Sketch.</desc>
    <defs>
        <rect id="path-1" x="0" y="0" width="400" height="500"></rect>
    </defs>
    <g id="Illo/beyondRide/freight" stroke="none" stroke-width="1" fill="none" fill-rule="evenodd">
        <g id="D_Homepage_D_Homepage_Byond2">
            <mask id="mask-2" fill="white">
                <use xlink:href="#path-1"></use>
            </mask>
            <use id="Mask" fill="#EBEBEB" xlink:href="#path-1"></use>
            <g id="Page-1" mask="url(#mask-2)">
                <polygon id="Fill-1" fill="#EEEEEE" points="0 500 400 500 400 0 0 0"></polygon>
                <polygon id="Fill-2" fill="#EEEEEE" points="48.515 392.894 289.661 392.894 289.661 311.661 48.515 311.661"></polygon>
                <g id="Group-29" transform="translate(68.000000, 114.000000)">
                    <path d="M250.1957,34.6061 L250.1957,197.6611 L108.5357,197.6611 C105.9547,197.6611 103.4357,198.4791 101.3577,200.0041 L71.5957,221.7691 C69.5107,223.2941 67.0067,224.1131 64.4317,224.1131 L0.5217,224.1131 L0.5217,159.6701 C0.5217,156.6761 2.6477,154.1091 5.5867,153.5491 L22.5457,150.3101 L22.5457,75.1651 L13.3237,75.1641 L0.5217,75.1641 C0.5217,71.1331 1.6407,67.2791 3.6487,63.9561 C5.6567,60.6391 8.5527,57.8551 12.1207,55.9941 C17.1657,53.3491 22.4337,51.1871 27.8487,49.5151 C33.2707,47.8501 38.8397,46.6741 44.4927,46.0171 L142.8947,34.6061 L250.1957,34.6061 Z" id="Fill-3" fill="#FFFFFF"></path>
                    <path d="M22.5454,75.1647 L22.5454,150.3107 L6.5384,153.3677 L6.5384,123.0117 C6.5384,106.9677 7.9664,90.9557 10.8054,75.1647 L22.5454,75.1647 Z" id="Fill-5" fill="#000000"></path>
                    <path d="M122.2734,82.8454 L122.2734,130.9774 L36.4654,147.5794 L36.4654,82.8454 C36.4654,78.4404 40.0364,74.8694 44.4404,74.8694 L114.2984,74.8694 C118.7034,74.8694 122.2734,78.4404 122.2734,82.8454" id="Fill-7" fill="#000000"></path>
                    <path d="M177.2958,82.8483 L177.2958,110.6433 C177.2958,116.2623 173.3118,121.0913 167.7958,122.1613 L135.6118,128.3953 L135.6118,82.8483 C135.6118,78.4423 139.1838,74.8693 143.5898,74.8693 L169.3178,74.8693 C173.7238,74.8693 177.2958,78.4423 177.2958,82.8483" id="Fill-9" fill="#000000"></path>
                    <path d="M250.1967,0.4557 L144.7437,27.5457 C142.3747,28.1537 140.7177,30.2897 140.7177,32.7357 L140.7177,34.6057 L250.1967,34.6057 L250.1967,0.4557 Z" id="Fill-11" fill="#276EF1"></path>
                    <path d="M15.8359,202.9548 L15.8359,278.8938 L0.5139,278.8938 L0.5139,197.6608 L10.6169,197.6608 C13.4999,197.6608 15.8359,200.0308 15.8359,202.9548" id="Fill-13" fill="#276EF1"></path>
                    <path d="M241.6606,278.8942 L241.6606,307.9702 L7.6226,307.9702 C3.6346,307.6072 0.5146,304.2552 0.5146,300.1762 L0.5146,278.8942 L241.6606,278.8942 Z" id="Fill-15" fill="#FFFFFF"></path>
                    <path d="M139.6205,224.8093 C104.9865,224.8093 76.8325,252.5933 76.2575,287.0963 L76.2575,307.9713 L202.9835,307.9713 L202.9835,287.0963 C202.4095,252.5933 174.2545,224.8093 139.6205,224.8093" id="Fill-17" fill="#030303"></path>
                    <path d="M195.4575,288.1628 C195.4575,257.3258 170.4585,232.3268 139.6205,232.3268 C108.7825,232.3268 83.7835,257.3258 83.7835,288.1628 C83.7835,319.0008 108.7825,343.9998 139.6205,343.9998 C170.4585,343.9998 195.4575,319.0008 195.4575,288.1628" id="Fill-19" fill="#000000"></path>
                    <path d="M268.6943,307.9704 L227.8553,307.9704 C221.3353,307.9704 216.0493,302.6854 216.0493,296.1644 L216.0493,261.2224 C216.0493,254.7014 221.3353,249.4164 227.8553,249.4164 L268.6943,249.4164 C275.2143,249.4164 280.5003,254.7014 280.5003,261.2224 L280.5003,296.1644 C280.5003,302.6854 275.2143,307.9704 268.6943,307.9704" id="Fill-21" fill="#276EF1"></path>
                    <path d="M241.6606,296.3083 L241.6606,307.9703 L7.6226,307.9703 C3.6346,307.6073 0.5146,304.2553 0.5146,300.1763 L0.5146,296.3083 L241.6606,296.3083 Z" id="Fill-23" fill="#000000"></path>
                    <path d="M161.1894,288.1628 C161.1894,276.2508 151.5324,266.5948 139.6204,266.5948 C127.7084,266.5948 118.0514,276.2508 118.0514,288.1628 C118.0514,300.0748 127.7084,309.7318 139.6204,309.7318 C151.5324,309.7318 161.1894,300.0748 161.1894,288.1628" id="Fill-25" fill="#FFFFFF"></path>
                    <path d="M37.7089,136.6452 L34.1949,136.6452 L34.1949,87.4722 L37.7089,87.4722 C40.9729,87.4722 43.6189,90.1192 43.6189,93.3822 L43.6189,130.7352 C43.6189,133.9992 40.9729,136.6452 37.7089,136.6452" id="Fill-27" fill="#FFFFFF"></path>
                </g>
                <polygon id="Fill-30" fill="#EEEEEE" points="353 421.499 418 421.499 418 365.499 353 365.499"></polygon>
                <polygon id="Fill-31" fill="#FFFFFF" points="353 364 418 364 418 78.5 353 78.5"></polygon>
            </g>
        </g>
    </g>
</svg>