<?xml version="1.0" encoding="UTF-8"?>
<svg width="400px" height="500px" viewBox="0 0 400 500" version="1.1" xmlns="http://www.w3.org/2000/svg" xmlns:xlink="http://www.w3.org/1999/xlink">
    <!-- Generator: Sketch 51.2 (57519) - http://www.bohemiancoding.com/sketch -->
    <title>Illo/beyondRide/jump</title>
    <desc>Created with Sketch.</desc>
    <defs>
        <rect id="path-1" x="0" y="0" width="400" height="500"></rect>
        <polygon id="path-3" points="0.591675 0.563444444 48.6103139 0.563444444 48.6103139 10.8184389 0.591675 10.8184389"></polygon>
        <polygon id="path-5" points="0 0.364414804 207.636033 0.364414804 207.636033 207.988562 0 207.988562"></polygon>
    </defs>
    <g id="Illo/beyondRide/jump" stroke="none" stroke-width="1" fill="none" fill-rule="evenodd">
        <path d="M198.5,35.5 L200,37" id="Line-4-Copy-2" stroke="#979797" stroke-linecap="square"></path>
        <g id="D_Homepage_D_Homepage_Byond5">
            <g>
                <mask id="mask-2" fill="white">
                    <use xlink:href="#path-1"></use>
                </mask>
                <use id="Mask" fill="#F4F4F4" xlink:href="#path-1"></use>
                <g id="Page-1" mask="url(#mask-2)">
                    <g transform="translate(92.000000, 103.000000)">
                        <g id="Group-3" stroke-width="1" fill="none" transform="translate(188.000000, 0.000000)">
                            <mask id="mask-4" fill="white">
                                <use xlink:href="#path-3"></use>
                            </mask>
                            <g id="Clip-2"></g>
                            <path d="M42.8997722,11.8184389 L0.591675,11.8184389 L0.591675,1.56338333 L42.8997722,1.56338333 C46.0534667,1.56338333 48.6103139,3.85932778 48.6103139,6.69060556 C48.6103139,9.52249444 46.0534667,11.8184389 42.8997722,11.8184389" id="Fill-1" fill="#070707" mask="url(#mask-4)"></path>
                        </g>
                        <g id="Group-6" stroke-width="1" fill="none" transform="translate(0.000000, 147.000000)">
                            <mask id="mask-6" fill="white">
                                <use xlink:href="#path-5"></use>
                            </mask>
                            <g id="Clip-5"></g>
                            <path d="M103.81795,23.3207417 C59.2310431,23.3207417 22.9574482,59.5916848 22.9574482,104.176154 C22.9574482,148.760623 59.2310431,185.032904 103.81795,185.032904 C148.404188,185.032904 184.677783,148.760623 184.677783,104.176154 C184.677783,59.5916848 148.404188,23.3207417 103.81795,23.3207417 M103.81795,207.988562 C46.5724707,207.988562 -0.000133762058,161.418504 -0.000133762058,104.176154 C-0.000133762058,46.9344732 46.5724707,0.364414804 103.81795,0.364414804 C161.063429,0.364414804 207.636033,46.9344732 207.636033,104.176154 C207.636033,161.418504 161.063429,207.988562 103.81795,207.988562" id="Fill-4" fill="#070707" mask="url(#mask-6)"></path>
                        </g>
                        <path d="M170,34 L59.4845391,59.0032141 C55.4373714,59.9187945 53.0566058,64.140824 54.3561182,68.0991449 L70.5293901,117.385756 C71.8242159,121.333313 75.4944513,124 79.6306634,124 L139.774453,124 L170,34 Z" id="Fill-7" fill="#F05139"></path>
                        <path d="M120,249.999672 C120,240.611344 112.389018,233 102.999672,233 C93.6109815,233 86,240.611344 86,249.999672 C86,259.388001 93.6109815,267 102.999672,267 C112.389018,267 120,259.388001 120,249.999672" id="Fill-9" fill="#070707"></path>
                        <path d="M463,228.313003 L463,258 L274.359924,257.999688 C268.289752,257.999688 262.504804,255.422193 258.449823,250.913403 L171.880391,154.700651 C168.542793,150.991476 162.514507,151.806366 160.282572,156.267338 L111.475196,253.842224 C110.178719,256.372565 107.58643,257.965817 104.740164,257.999688 C99.4684885,258.046177 95.7253264,252.892515 97.4067575,247.897581 L133.436188,141.012898 L158.401018,66.9622194 L180.634603,1 L201.424112,1 L201.424112,106.152628 C201.424112,118.000072 206.0655,129.377312 214.349656,137.858273 L296.852139,222.302612 C300.601285,226.14727 305.75395,228.313003 311.12602,228.313003 L463,228.313003 Z" id="Fill-11" fill="#F05139"></path>
                    </g>
                </g>
            </g>
        </g>
    </g>
</svg>