<?xml version="1.0" encoding="UTF-8"?>
<svg width="400px" height="500px" viewBox="0 0 400 500" version="1.1" xmlns="http://www.w3.org/2000/svg" xmlns:xlink="http://www.w3.org/1999/xlink">
    <!-- Generator: Sketch 51.2 (57519) - http://www.bohemiancoding.com/sketch -->
    <title>Illo/beyondRide/4Business</title>
    <desc>Created with Sketch.</desc>
    <defs>
        <polygon id="path-1" points="0.2102 0.2592 299 0.2592 299 191.9392 0.2102 191.9392"></polygon>
        <polygon id="path-3" points="0.2099 0.2003 299 0.2003 299 133.3523 0.2099 133.3523"></polygon>
        <polygon id="path-5" points="0 500.097 400 500.097 400 0.098 0 0.098"></polygon>
    </defs>
    <g id="Illo/beyondRide/4Business" stroke="none" stroke-width="1" fill="none" fill-rule="evenodd">
        <g id="D_Homepage_D_Homepage_Byond4" transform="translate(0.000000, -1.000000)">
            <polygon id="Fill-1" fill="#EEEEEE" points="0 499.999 400 499.999 400 0 0 0"></polygon>
            <g id="Page-1">
                <polygon id="Fill-1" fill="#EEEEEE" points="0 500.999 400 500.999 400 1 0 1"></polygon>
                <g id="Group-24" transform="translate(0.000000, 0.902000)">
                    <g id="Group-4" transform="translate(101.000000, 157.000000)">
                        <mask id="mask-2" fill="white">
                            <use xlink:href="#path-1"></use>
                        </mask>
                        <g id="Clip-3"></g>
                        <path d="M301.3002,191.9392 L18.6582,191.9392 C8.5112,191.9392 0.2102,183.6372 0.2102,173.4912 L0.2102,0.2592 L319.7492,0.2592 L319.7492,173.4912 C319.7492,183.6372 311.4472,191.9392 301.3002,191.9392" id="Fill-2" fill="#000000" mask="url(#mask-2)"></path>
                    </g>
                    <path d="M359.1381,100.4968 L350.1881,96.7068 C290.1621,71.2888 221.9891,72.6288 162.8211,100.7258 L162.8211,114.1998 L215.7761,114.1998 C215.7761,104.3688 223.7461,96.3988 233.5771,96.3988 L288.3811,96.3988 C298.2121,96.3988 306.1831,104.3688 306.1831,114.1998 L359.1381,114.1998 L359.1381,100.4968 Z" id="Fill-5" fill="#000000"></path>
                    <g id="Group-9" transform="translate(101.000000, 114.000000)">
                        <mask id="mask-4" fill="white">
                            <use xlink:href="#path-3"></use>
                        </mask>
                        <g id="Clip-8"></g>
                        <path d="M0.2099,16.4783 L0.2099,61.8543 L143.1019,133.3523 L176.8569,133.3523 L319.7499,61.8543 L319.7499,16.4783 C319.7499,7.4883 312.4609,0.2003 303.4709,0.2003 L16.4879,0.2003 C7.4979,0.2003 0.2099,7.4883 0.2099,16.4783" id="Fill-7" fill="#276EF1" mask="url(#mask-4)"></path>
                    </g>
                    <mask id="mask-6" fill="white">
                        <use xlink:href="#path-5"></use>
                    </mask>
                    <g id="Clip-11"></g>
                    <polygon id="Fill-10" fill="#9CC0FF" mask="url(#mask-6)" points="244.101 348.939 277.857 348.939 277.857 247.352 244.101 247.352"></polygon>
                    <path d="M277.8569,110.06968 L244.1009,110.06968 L244.1009,247.352 C254.5459,253.383 267.4139,253.383 277.8569,247.352 L277.8569,110.06968 Z" id="Fill-12" fill="#EEEEEE" mask="url(#mask-6)"></path>
                    <polygon id="Fill-13" fill="#276EF1" mask="url(#mask-6)" points="244.102 306.74 277.857 306.74 277.857 284.815 244.102 284.815"></polygon>
                    <path d="M277.8569,306.74 L277.8569,284.815 L294.2619,284.815 L294.2619,290.336 C294.2619,299.396 286.9179,306.74 277.8569,306.74" id="Fill-14" fill="#276EF1" mask="url(#mask-6)"></path>
                    <path d="M244.101,306.74 C235.041,306.74 227.697,299.396 227.697,290.336 L227.697,284.815 L244.101,284.815 L244.101,306.74 Z" id="Fill-15" fill="#276EF1" mask="url(#mask-6)"></path>
                    <path d="M997.5864,315.5417 L997.5864,417.4377 C997.5864,417.9957 997.5544,418.5427 997.4894,419.0787 C996.6744,426.4907 990.3894,432.2617 982.7634,432.2617 L256.5434,432.2617 C250.3974,432.2617 244.2944,431.1987 238.5134,429.1397 L209.2854,418.7037 L205.7454,417.4377 C185.8284,410.3267 170.0714,395.1707 162.0694,376.0037 C160.5144,372.2927 159.2594,368.4207 158.3154,364.4407 L154.030273,348.387062 L161.3404,309.1277 L170.4364,273.4637 C174.2444,258.5657 187.6514,248.1507 203.0214,248.1507 L243.0074,248.1507 L349.2154,199.7767 C377.9394,186.7017 409.1304,179.9347 440.6864,179.9347 L543.2154,179.9347 C584.3924,179.9347 625.1284,188.2787 662.9704,204.4757 L810.6334,267.6717 L838.7034,272.6597 C879.3544,279.8887 919.3184,290.5397 958.1794,304.4727 L997.5864,315.5417 Z" id="Fill-16" fill="#FFFFFF" mask="url(#mask-6)"></path>
                    <path d="M668.8579,418.7039 L209.2849,418.7039 L205.7459,417.4379 C185.8279,410.3269 170.0709,395.1709 162.0699,376.0039 L594.1849,376.0039 C611.8719,376.0039 628.9159,382.5679 642.0329,394.4309 L667.4639,417.4379 L668.8579,418.7039 Z" id="Fill-17" fill="#FFFFFF" mask="url(#mask-6)"></path>
                    <path d="M326.5873,243.324 L350.8713,266.053 L663.2313,266.053 L663.2313,249.642 C663.2313,244.613 667.3083,240.536 672.3373,240.536 L679.2143,240.536 C683.8563,240.536 688.4483,241.477 692.7153,243.303 L744.7533,265.568 C745.5003,265.887 746.3033,266.053 747.1143,266.053 C753.6453,266.053 755.4803,257.1 749.4773,254.531 L659.1763,215.887 C622.3223,200.109 583.3013,192.119 543.2193,192.119 L440.6903,192.119 C410.3033,192.119 380.8713,198.501 353.2203,211.093 L330.1493,221.604 C321.5673,225.509 319.7013,236.878 326.5873,243.324" id="Fill-18" fill="#000000" mask="url(#mask-6)"></path>
                    <path d="M997.5864,417.4382 C997.5864,417.9962 997.5544,418.5422 997.4894,419.0792 C996.6744,426.4912 990.3894,432.2612 982.7634,432.2612 L256.5434,432.2612 C250.3974,432.2612 244.2944,431.1992 238.5134,429.1392 L209.2854,418.7042 L205.7454,417.4382 L997.5864,417.4382 Z" id="Fill-19" fill="#000000" mask="url(#mask-6)"></path>
                    <path d="M247.2543,424.6375 L391.2323,424.6375 L391.2323,387.8135 C391.2323,350.5045 360.9863,320.2595 323.6773,320.2595 L314.8093,320.2595 C277.4993,320.2595 247.2543,350.5045 247.2543,387.8135 L247.2543,424.6375 Z" id="Fill-20" fill="#000000" mask="url(#mask-6)"></path>
                    <path d="M254.747,392.2478 C254.747,427.8678 283.623,456.7438 319.244,456.7438 C354.864,456.7438 383.74,427.8678 383.74,392.2478 C383.74,356.6278 354.864,327.7518 319.244,327.7518 C283.623,327.7518 254.747,356.6278 254.747,392.2478" id="Fill-21" fill="#000000" mask="url(#mask-6)"></path>
                    <path d="M276.1498,392.2478 C276.1498,416.0478 295.4438,435.3418 319.2438,435.3418 C343.0438,435.3418 362.3378,416.0478 362.3378,392.2478 C362.3378,368.4478 343.0438,349.1538 319.2438,349.1538 C295.4438,349.1538 276.1498,368.4478 276.1498,392.2478" id="Fill-22" fill="#FFFFFF" mask="url(#mask-6)"></path>
                    <path d="M158.132813,309.1238 L199.5548,309.1238 C206.3178,309.1238 212.8028,306.4368 217.5858,301.6548 L237.7838,281.4568 C240.7338,278.5068 238.6448,273.4628 234.4718,273.4628 L167.231813,273.4628 L158.132813,309.1238 Z" id="Fill-23" fill="#000000" mask="url(#mask-6)"></path>
                </g>
            </g>
        </g>
    </g>
</svg>