<?xml version="1.0" encoding="UTF-8"?>
<svg width="400px" height="500px" viewBox="0 0 400 500" version="1.1" xmlns="http://www.w3.org/2000/svg" xmlns:xlink="http://www.w3.org/1999/xlink">
    <!-- Generator: Sketch 51.2 (57519) - http://www.bohemiancoding.com/sketch -->
    <title>Illo/beyondRide/elevate</title>
    <desc>Created with Sketch.</desc>
    <defs>
        <rect id="path-1" x="0" y="0" width="400" height="500"></rect>
        <polygon id="path-3" points="0.377001572 0.472121212 320.946899 0.472121212 320.946899 40.8147545 0.377001572 40.8147545"></polygon>
        <polygon id="path-5" points="0 0.586018809 630.472885 0.586018809 630.472885 199.999812 0 199.999812"></polygon>
    </defs>
    <g id="Illo/beyondRide/elevate" stroke="none" stroke-width="1" fill="none" fill-rule="evenodd">
        <g id="D_Homepage_D_Homepage_Byond3">
            <mask id="mask-2" fill="white">
                <use xlink:href="#path-1"></use>
            </mask>
            <use id="Mask" fill="#EBEBEB" xlink:href="#path-1"></use>
            <g id="Page-1" mask="url(#mask-2)">
                <g transform="translate(-116.000000, 79.000000)">
                    <rect id="Rectangle" fill="#FFFFFF" x="279" y="248" width="70" height="24"></rect>
                    <path d="M374.348404,43.6083145 C367.660023,37.4309995 358.889536,34 349.785608,34 L315.5,34 L281.214392,34 C272.110464,34 263.340608,37.4309995 256.652227,43.6083145 L241.848241,57.2805191 C235.082184,63.5298396 226.210022,67 217,67 L315.5,67 L414,67 C404.790609,67 395.918448,63.5298396 389.151759,57.2805191 L374.348404,43.6083145 Z" id="Fill-1" fill="#FFFFFF"></path>
                    <g id="Group-5" stroke-width="1" fill="none" transform="translate(163.000000, 0.000000)">
                        <mask id="mask-4" fill="white">
                            <use xlink:href="#path-3"></use>
                        </mask>
                        <g id="Clip-4"></g>
                        <path d="M299.428711,10.1033939 L168.286407,10.1033939 C165.46867,10.1033939 163.180678,12.3503182 163.180678,15.1327273 L163.180678,40.3427576 L143.403546,40.3427576 L143.403546,15.1327273 C143.403546,12.3503182 141.115554,10.1033939 138.298448,10.1033939 L6.13158546,10.1033939 C3.30060511,10.1033939 1,7.83659091 1,5.04859091 C1,2.2599697 3.30060511,0 6.13158546,0 L299.428711,0 C302.259691,0 304.55399,2.2599697 304.55399,5.04859091 C304.55399,7.83659091 302.259691,10.1033939 299.428711,10.1033939 Z" id="Fill-3" fill="#FFFFFF" mask="url(#mask-4)"></path>
                    </g>
                    <path d="M316.5,34 L282,34 L282,42.3962613 C282,53.2233128 290.50315,62 300.992761,62 L316.5,62 L332.007239,62 C342.496215,62 351,53.2233128 351,42.3962613 L351,34 L316.5,34 Z" id="Fill-6" fill="#000000"></path>
                    <g id="Group-10" stroke-width="1" fill="none" transform="translate(0.000000, 66.000000)">
                        <mask id="mask-6" fill="white">
                            <use xlink:href="#path-5"></use>
                        </mask>
                        <g id="Clip-9"></g>
                        <path d="M315.236505,1 L0,1 L0,26.2470219 L209.220941,30.7931034 C213.497369,30.8858934 216.914602,34.3605016 216.914602,38.6144201 L216.914602,137.636991 C216.914602,140.561129 217.117581,143.436991 217.512823,146.246395 C221.724953,176.839498 248.117269,200.413793 280.033513,200.413793 L315.236505,200.413793 L350.439498,200.413793 C382.355742,200.413793 408.748058,176.839498 412.960188,146.246395 C413.35543,143.436991 413.558409,140.561129 413.558409,137.636991 L413.558409,38.6144201 C413.558409,34.3605016 416.975642,30.8858934 421.25207,30.7931034 L630.473011,26.2470219 L630.473011,1 L315.236505,1 Z" id="Fill-8" fill="#FFFFFF" mask="url(#mask-6)"></path>
                    </g>
                    <path d="M272.35955,218 L218,218 C222.218259,248.498559 248.645021,272 280.602923,272 L284,272 L284,229.526025 C284,223.160804 278.788876,218 272.35955,218" id="Fill-11" fill="#000000"></path>
                    <path d="M357.64045,218 C351.211124,218 346,223.160804 346,229.526025 L346,272 L349.397077,272 C381.354979,272 407.781741,248.498559 412,218 L357.64045,218 Z" id="Fill-13" fill="#000000"></path>
                    <path d="M413.664024,110.680165 C412.711671,106.567169 409.774408,103.112076 405.716804,101.541923 L392.001154,96.2503683 C367.394705,86.7457158 341.450668,82 315.500316,82 L315.499684,82 L315.499053,82 C289.549332,82 263.605295,86.7457158 238.998846,96.2503683 L225.283196,101.541923 C221.225592,103.112076 218.288329,106.567169 217.335976,110.680165 C217.111781,111.623264 217,112.597212 217,113.596343 L217,182 L315.499053,182 L315.500316,182 L414,182 L414,113.596343 C414,112.597212 413.887587,111.623264 413.664024,110.680165" id="Fill-15" fill="#000000"></path>
                    <path d="M413.664024,111.046566 C412.711671,106.881025 409.774408,103.381792 405.716804,101.791579 L392.001154,96.4324227 C367.394705,86.8063443 341.450668,82 315.500316,82 L315.499684,82 L315.499053,82 C289.549332,82 263.605295,86.8063443 238.998846,96.4324227 L225.283196,101.791579 C221.225592,103.381792 218.288329,106.881025 217.335976,111.046566 C217.111781,112.001714 217,112.988104 217,114 L315.499053,114 L315.500316,114 L414,114 C414,112.988104 413.887587,112.001714 413.664024,111.046566" id="Fill-17" fill="#263139"></path>
                    <polygon id="Fill-19" fill="#276EF1" points="315.5 182 217 182 217 193 315.5 193 414 193 414 182"></polygon>
                </g>
            </g>
        </g>
    </g>
</svg>