<?xml version="1.0" encoding="UTF-8"?>
<svg width="400px" height="500px" viewBox="0 0 400 500" version="1.1" xmlns="http://www.w3.org/2000/svg" xmlns:xlink="http://www.w3.org/1999/xlink">
    <!-- Generator: Sketch 51.2 (57519) - http://www.bohemiancoding.com/sketch -->
    <title>Illo/beyondRide/eats</title>
    <desc>Created with Sketch.</desc>
    <defs>
        <rect id="path-1" x="0" y="0" width="400" height="500"></rect>
        <rect id="path-3" x="0" y="0" width="400" height="500"></rect>
    </defs>
    <g id="Illo/beyondRide/eats" stroke="none" stroke-width="1" fill="none" fill-rule="evenodd">
        <g id="Group-3">
            <mask id="mask-2" fill="white">
                <use xlink:href="#path-1"></use>
            </mask>
            <use id="Mask" fill="#EBEBEB" xlink:href="#path-1"></use>
        </g>
        <g id="Group-3-Copy">
            <mask id="mask-4" fill="white">
                <use xlink:href="#path-3"></use>
            </mask>
            <use id="Mask" fill="#EEEEEE" xlink:href="#path-3"></use>
            <g id="Group-6" mask="url(#mask-4)">
                <g transform="translate(171.000000, 114.000000)" id="Group-8">
                    <g>
                        <polygon id="Fill-3" fill="#46B174" points="73.8359375 31.6869697 184.263672 31.6869697 164.283687 0.62230303 90.2374179 0.62230303"></polygon>
                        <polygon id="Fill-2" fill="#000000" points="164.299546 0.622612121 164.299546 87.0800781 195.777964 87.0800781 195.777964 31.6563697"></polygon>
                        <polygon id="Fill-4" fill="#000000" points="58.7132746 31.7026303 58.7132746 83.1796875 90.2380358 83.1796875 90.2380358 0.622509091"></polygon>
                        <polygon id="Fill-1" fill="#46B174" points="0 345 236 345 236 77 0 77"></polygon>
                    </g>
                </g>
            </g>
            <g id="Group-18" mask="url(#mask-4)">
                <g transform="translate(62.000000, 288.000000)">
                    <g id="Group-9" stroke-width="1" fill="none">
                        <path d="M33.7756832,54.8554757 L24.1082329,45.2200938 C21.9796704,43.0985921 21.9796704,39.6586895 24.1082329,37.5371878 L33.7756832,27.9018059 C35.9042456,25.7803042 39.3555969,25.7803042 41.4841593,27.9018059 L51.1516097,37.5371878 C53.2801721,39.6586895 53.2801721,43.0985921 51.1516097,45.2200938 L41.4841593,54.8554757 C39.3555969,56.9769774 35.9042456,56.9769774 33.7756832,54.8554757" id="Fill-5" fill="#46B174"></path>
                        <path d="M232.727667,71.8865096 C231.070593,69.6603804 228.920551,68.0162579 226.538795,66.9890255 C222.937544,65.4357841 220.397927,62.0236101 219.958503,58.1460144 C219.667707,55.5774745 218.715004,53.0502442 217.057007,50.8213611 L215.823664,49.1653047 C213.917336,46.6022727 211.355564,44.8057636 208.538076,43.8336107 C204.782657,42.5383248 201.840542,39.4722336 201.016159,35.6047359 C200.347791,32.4743852 198.687947,29.5257969 196.069862,27.2666201 C195.466115,26.746119 194.858675,26.2320438 194.246619,25.7253125 C191.569451,23.5101993 188.357774,22.3544482 185.127633,22.2130775 C181.219892,22.0414131 177.615871,19.7877442 175.774164,16.3562924 C174.249102,13.5141911 171.809187,11.1292494 168.636283,9.68433099 C167.918063,9.35660807 167.197998,9.03622907 166.475162,8.72319401 C163.279179,7.34253496 159.869021,7.12864296 156.726581,7.89424778 C152.932389,8.81866511 148.844631,7.65373404 146.11669,4.87405611 C143.858638,2.57356969 140.852825,0.961576809 137.407588,0.451173596 C136.631209,0.336424672 135.853908,0.228101688 135.07476,0.127122636 C131.62306,-0.315349214 128.291372,0.417207915 125.487731,2.01359494 C122.105269,3.93954088 117.860574,3.93862288 114.478112,2.01267695 C111.676318,0.418125906 108.347399,-0.313513231 104.897545,0.131712592 C104.111012,0.234527628 103.325402,0.342850612 102.540715,0.459435519 C99.0973241,0.973510697 96.0952041,2.59009353 93.8399214,4.89333393 C91.1184424,7.67301186 87.0343776,8.83427097 83.2457243,7.90985364 C80.1088228,7.14424882 76.7042045,7.35446885 73.5119133,8.73053794 C72.7724613,9.04816296 72.0357787,9.37588589 71.3018656,9.71187073 C68.1363461,11.1595432 65.7038165,13.5444848 64.1824469,16.3829142 C62.3444331,19.813448 58.7468742,22.0726248 54.8419026,22.2424532 C51.6062229,22.3838239 48.3899295,23.540493 45.7109159,25.7611142 C45.1007064,26.2669275 44.4960358,26.7791666 43.8950579,27.2978318 C41.276973,29.5579266 39.6162061,32.5083509 38.9487606,35.6396195 C38.1253009,39.5061993 35.1850327,42.5722905 31.4314595,43.8684944 C28.6139717,44.8406472 26.0531227,46.6399104 24.146795,49.2038603 L22.9134517,50.8617528 C21.259147,53.0860459 20.308291,55.6086862 20.015649,58.1708002 C19.5753011,62.0392159 17.0412238,65.444046 13.4510501,66.9954514 C11.0729871,68.0226838 8.92663745,69.6640524 7.2723327,71.8865096 L2.30111001,78.5676509 C-3.37633095,86.1961593 2.10078404,97 11.6444238,97 L20.0018015,97 C22.8091345,97 25.4392206,96.249083 27.7000422,94.9381913 C31.1988229,92.9103484 35.5690677,92.9103484 39.0669252,94.9381913 C41.32867,96.249083 43.9578329,97 46.7651659,97 L48.8745891,97 C51.6846916,97 54.3184703,96.2481651 56.5829845,94.9363554 C60.0743799,92.9131023 64.4381626,92.9131023 67.9286348,94.9363554 C70.1931491,96.2481651 72.8269278,97 75.6370303,97 L77.7464534,97 C80.5565559,97 83.1903346,96.2481651 85.4548489,94.9363554 C88.9462443,92.9131023 93.3091038,92.9131023 96.8004992,94.9363554 C99.0650134,96.2481651 101.698792,97 104.508895,97 L106.618318,97 C109.42842,97 112.062199,96.2481651 114.327636,94.9363554 C117.818109,92.9131023 122.181891,92.9131023 125.672364,94.9363554 C127.937801,96.2481651 130.570657,97 133.381682,97 L135.491105,97 C138.301208,97 140.934987,96.2481651 143.199501,94.9363554 C146.690896,92.9131023 151.053756,92.9131023 154.545151,94.9363554 C156.809665,96.2481651 159.443444,97 162.253547,97 L164.36297,97 C167.173072,97 169.806851,96.2481651 172.071365,94.9363554 C175.562761,92.9131023 179.92562,92.9131023 183.417015,94.9363554 C185.68153,96.2481651 188.315308,97 191.125411,97 L193.234834,97 C196.042167,97 198.67133,96.249083 200.933075,94.9381913 C204.430932,92.9103484 208.801177,92.9103484 212.299958,94.9381913 C214.560779,96.249083 217.190865,97 219.998198,97 L228.355576,97 C237.899216,97 243.376331,86.1961593 237.69889,78.5676509 L232.727667,71.8865096 Z" id="Fill-7" fill="#FFFFFF"></path>
                        <path d="M85.0393701,83.3542699 C85.0393701,90.6355783 79.1165657,96.5387359 71.8110236,96.5387359 C64.5045441,96.5387359 58.5826772,90.6355783 58.5826772,83.3542699 C58.5826772,76.0729614 64.5045441,70.1698038 71.8110236,70.1698038 C79.1165657,70.1698038 85.0393701,76.0729614 85.0393701,83.3542699" id="Fill-9" fill="#46B174"></path>
                        <path d="M106.771654,42.4996476 C103.480973,42.4996476 100.809054,39.8468751 100.809054,36.5589318 C100.809054,33.2803292 103.480973,30.6275567 106.771654,30.6275567 C110.062334,30.6275567 112.724878,33.2803292 112.724878,36.5589318 C112.724878,39.8468751 110.062334,42.4996476 106.771654,42.4996476 M106.771654,23.3791361 C99.4590311,23.3791361 93.5433071,29.282489 93.5433071,36.5589318 C93.5433071,43.8447153 99.4590311,49.7480682 106.771654,49.7480682 C114.074901,49.7480682 120,43.8447153 120,36.5589318 C120,29.282489 114.074901,23.3791361 106.771654,23.3791361" id="Fill-11" fill="#46B174"></path>
                        <path d="M159.610329,68.3864842 L149.942879,58.7511023 C147.814316,56.6296006 147.814316,53.189698 149.942879,51.0681963 L159.610329,41.4328144 C161.738891,39.3113127 165.190243,39.3113127 167.318805,41.4328144 L176.986255,51.0681963 C179.114818,53.189698 179.114818,56.6296006 176.986255,58.7511023 L167.318805,68.3864842 C165.190243,70.5079859 161.738891,70.5079859 159.610329,68.3864842" id="Fill-13" fill="#46B174"></path>
                    </g>
                    <polygon id="Fill-15" fill="#000000" points="61 171 180 171 180 154 61 154"></polygon>
                    <path d="M222.759921,130.458515 L178.91215,161 L61.0869508,161 L17.2391794,130.457613 C6.43939082,122.934924 0,110.591224 0,97.4109686 L0,87 L240,87 L240,97.4091657 C240.0009,110.589421 233.560609,122.935826 222.759921,130.458515" id="Fill-17" fill="#000000"></path>
                </g>
            </g>
        </g>
    </g>
</svg>